<svg width="371" height="48" viewBox="0 0 371 48" fill="none" xmlns="http://www.w3.org/2000/svg">
<path d="M0.56125 24.28C0.56125 18.2213 1.26525 13.464 2.67325 10.008C4.08125 6.50933 6.19325 4.03467 9.00925 2.584C11.8679 1.13333 15.4093 0.407997 19.6333 0.407997C20.9986 0.407997 22.5559 0.493331 24.3053 0.663998C26.0973 0.791999 27.8253 1.048 29.4893 1.432V18.328H21.7453L20.7213 10.584C19.5693 10.584 18.5666 10.7333 17.7133 11.032C16.9026 11.288 16.2199 11.864 15.6653 12.76C15.1106 13.656 14.6839 15.0213 14.3853 16.856C14.1293 18.6907 14.0013 21.144 14.0013 24.216C14.0013 27.544 14.3639 30.168 15.0893 32.088C15.8146 33.9653 16.9026 35.3093 18.3533 36.12C19.8466 36.888 21.7453 37.272 24.0493 37.272C25.0733 37.272 26.0546 37.208 26.9933 37.08C27.9319 36.952 28.9346 36.8027 30.0013 36.632V46.744C28.7639 47.0427 27.2706 47.256 25.5213 47.384C23.7719 47.5547 22.2146 47.64 20.8493 47.64C13.5533 47.64 8.34792 45.6773 5.23325 41.752C2.11858 37.8267 0.56125 32.0027 0.56125 24.28ZM50.0333 47.64C45.8519 47.64 42.4813 46.936 39.9213 45.528C37.3613 44.0773 35.4839 41.6453 34.2893 38.232C33.1373 34.776 32.5613 30.04 32.5613 24.024C32.5613 18.008 33.1373 13.2933 34.2893 9.88C35.4839 6.424 37.3613 3.992 39.9213 2.584C42.4813 1.13333 45.8519 0.407997 50.0333 0.407997C54.2146 0.407997 57.5853 1.13333 60.1453 2.584C62.7053 3.992 64.5613 6.424 65.7133 9.88C66.9079 13.2933 67.5053 18.008 67.5053 24.024C67.5053 30.04 66.9079 34.776 65.7133 38.232C64.5613 41.6453 62.7053 44.0773 60.1453 45.528C57.5853 46.936 54.2146 47.64 50.0333 47.64ZM54.0653 23.896C54.0653 20.2267 53.9373 17.432 53.6813 15.512C53.4679 13.5493 53.0626 12.2053 52.4653 11.48C51.9106 10.712 51.0999 10.328 50.0333 10.328C49.0093 10.328 48.1986 10.712 47.6013 11.48C47.0039 12.2053 46.5773 13.5493 46.3213 15.512C46.1079 17.432 46.0013 20.2267 46.0013 23.896C46.0013 27.5227 46.1079 30.3387 46.3213 32.344C46.5773 34.3493 47.0039 35.7573 47.6013 36.568C48.1986 37.336 49.0093 37.72 50.0333 37.72C51.0999 37.72 51.9106 37.336 52.4653 36.568C53.0626 35.7573 53.4679 34.3493 53.6813 32.344C53.9373 30.3387 54.0653 27.5227 54.0653 23.896ZM88.9533 37.528L83.3213 24.088V47H71.1613V9.688L67.6412 0.919998H82.8733L91.8333 20.184L100.793 0.919998H112.569V47H100.409V24.216L94.7773 37.528H88.9533ZM118.349 0.919998H130.829V47H118.349V0.919998ZM150.487 0.919998L159.511 27.224V0.919998H171.671V47H156.695L148.503 23.064V47H136.343V7.512L133.719 0.919998H150.487ZM189.251 24.216C189.251 27.3733 189.486 29.8907 189.955 31.768C190.425 33.6453 191.214 35.0107 192.323 35.864C193.475 36.7173 195.054 37.2293 197.059 37.4V32.984L193.539 24.216H208.579V44.824C207.214 45.72 205.443 46.424 203.267 46.936C201.091 47.4053 198.595 47.64 195.779 47.64C191.683 47.64 188.142 46.872 185.155 45.336C182.169 43.8 179.865 41.3253 178.243 37.912C176.622 34.456 175.811 29.912 175.811 24.28C175.811 18.6053 176.686 14.0187 178.435 10.52C180.185 7.02133 182.638 4.46133 185.795 2.84C188.953 1.21866 192.622 0.407997 196.803 0.407997C198.297 0.407997 199.854 0.535997 201.475 0.791996C203.097 1.048 204.761 1.34667 206.467 1.688L205.315 12.184C203.907 11.928 202.691 11.736 201.667 11.608C200.686 11.4373 199.683 11.352 198.659 11.352C196.441 11.352 194.627 11.7147 193.219 12.44C191.854 13.1653 190.851 14.4667 190.211 16.344C189.571 18.1787 189.251 20.8027 189.251 24.216ZM239.931 36.568C241.553 36.568 242.769 36.3333 243.579 35.864C244.39 35.3947 244.795 34.6267 244.795 33.56C244.795 32.8347 244.603 32.2587 244.219 31.832C243.835 31.4053 243.153 30.9787 242.171 30.552L235.387 27.416C232.87 26.264 230.929 24.728 229.563 22.808C228.198 20.888 227.515 18.0933 227.515 14.424C227.515 9.73067 228.731 6.232 231.163 3.928C233.638 1.58133 237.713 0.386664 243.387 0.343998C245.734 0.343998 247.867 0.450665 249.787 0.663998C251.707 0.877331 253.243 1.112 254.395 1.368C255.547 1.58133 256.123 1.688 256.123 1.688L254.843 11.992C254.843 11.992 254.31 11.928 253.243 11.8C252.219 11.672 250.939 11.5653 249.403 11.48C247.867 11.352 246.374 11.288 244.923 11.288C243.387 11.288 242.214 11.5227 241.403 11.992C240.635 12.4187 240.251 13.2507 240.251 14.488C240.251 15.1707 240.55 15.7467 241.147 16.216C241.745 16.6427 242.577 17.0907 243.643 17.56L249.083 19.928C251.985 21.208 254.097 22.808 255.419 24.728C256.742 26.6053 257.403 29.2933 257.403 32.792C257.403 37.528 256.166 41.176 253.691 43.736C251.217 46.296 247.142 47.5973 241.467 47.64C238.651 47.64 236.027 47.448 233.595 47.064C231.163 46.7227 229.009 46.3173 227.131 45.848L228.411 35.544C228.411 35.544 228.923 35.6293 229.947 35.8C231.014 35.9707 232.422 36.1413 234.171 36.312C235.921 36.4827 237.841 36.568 239.931 36.568ZM277.158 47.64C272.977 47.64 269.606 46.936 267.046 45.528C264.486 44.0773 262.609 41.6453 261.414 38.232C260.262 34.776 259.686 30.04 259.686 24.024C259.686 18.008 260.262 13.2933 261.414 9.88C262.609 6.424 264.486 3.992 267.046 2.584C269.606 1.13333 272.977 0.407997 277.158 0.407997C281.34 0.407997 284.71 1.13333 287.27 2.584C289.83 3.992 291.686 6.424 292.838 9.88C294.033 13.2933 294.63 18.008 294.63 24.024C294.63 30.04 294.033 34.776 292.838 38.232C291.686 41.6453 289.83 44.0773 287.27 45.528C284.71 46.936 281.34 47.64 277.158 47.64ZM281.19 23.896C281.19 20.2267 281.062 17.432 280.806 15.512C280.593 13.5493 280.188 12.2053 279.59 11.48C279.036 10.712 278.225 10.328 277.158 10.328C276.134 10.328 275.324 10.712 274.726 11.48C274.129 12.2053 273.702 13.5493 273.446 15.512C273.233 17.432 273.126 20.2267 273.126 23.896C273.126 27.5227 273.233 30.3387 273.446 32.344C273.702 34.3493 274.129 35.7573 274.726 36.568C275.324 37.336 276.134 37.72 277.158 37.72C278.225 37.72 279.036 37.336 279.59 36.568C280.188 35.7573 280.593 34.3493 280.806 32.344C281.062 30.3387 281.19 27.5227 281.19 23.896ZM314.658 47.64C310.477 47.64 307.106 46.936 304.546 45.528C301.986 44.0773 300.109 41.6453 298.914 38.232C297.762 34.776 297.186 30.04 297.186 24.024C297.186 18.008 297.762 13.2933 298.914 9.88C300.109 6.424 301.986 3.992 304.546 2.584C307.106 1.13333 310.477 0.407997 314.658 0.407997C318.84 0.407997 322.21 1.13333 324.77 2.584C327.33 3.992 329.186 6.424 330.338 9.88C331.533 13.2933 332.13 18.008 332.13 24.024C332.13 30.04 331.533 34.776 330.338 38.232C329.186 41.6453 327.33 44.0773 324.77 45.528C322.21 46.936 318.84 47.64 314.658 47.64ZM318.69 23.896C318.69 20.2267 318.562 17.432 318.306 15.512C318.093 13.5493 317.688 12.2053 317.09 11.48C316.536 10.712 315.725 10.328 314.658 10.328C313.634 10.328 312.824 10.712 312.226 11.48C311.629 12.2053 311.202 13.5493 310.946 15.512C310.733 17.432 310.626 20.2267 310.626 23.896C310.626 27.5227 310.733 30.3387 310.946 32.344C311.202 34.3493 311.629 35.7573 312.226 36.568C312.824 37.336 313.634 37.72 314.658 37.72C315.725 37.72 316.536 37.336 317.09 36.568C317.688 35.7573 318.093 34.3493 318.306 32.344C318.562 30.3387 318.69 27.5227 318.69 23.896ZM349.674 0.919998L358.698 27.224V0.919998H370.858V47H355.882L347.69 23.064V47H335.53V7.512L332.906 0.919998H349.674Z" fill="url(#paint0_linear_1_34)"/>
<defs>
<linearGradient id="paint0_linear_1_34" x1="-1" y1="23.5" x2="374" y2="23.5" gradientUnits="userSpaceOnUse">
<stop stop-color="#FF0000"/>
<stop offset="1" stop-color="#1A01FF"/>
</linearGradient>
</defs>
</svg>
