<svg width="538" height="72" viewBox="0 0 538 72" fill="none" xmlns="http://www.w3.org/2000/svg">
<path d="M40.9432 21.2614C40.6705 18.5114 39.5 16.375 37.4318 14.8523C35.3636 13.3295 32.5568 12.5682 29.0114 12.5682C26.6023 12.5682 24.5682 12.9091 22.9091 13.5909C21.25 14.25 19.9773 15.1705 19.0909 16.3523C18.2273 17.5341 17.7955 18.875 17.7955 20.375C17.75 21.625 18.0114 22.7159 18.5795 23.6477C19.1705 24.5795 19.9773 25.3864 21 26.0682C22.0227 26.7273 23.2045 27.3068 24.5455 27.8068C25.8864 28.2841 27.3182 28.6932 28.8409 29.0341L35.1136 30.5341C38.1591 31.2159 40.9545 32.125 43.5 33.2614C46.0455 34.3977 48.25 35.7955 50.1136 37.4545C51.9773 39.1136 53.4205 41.0682 54.4432 43.3182C55.4886 45.5682 56.0227 48.1477 56.0455 51.0568C56.0227 55.3295 54.9318 59.0341 52.7727 62.1705C50.6364 65.2841 47.5455 67.7045 43.5 69.4318C39.4773 71.1364 34.625 71.9886 28.9432 71.9886C23.3068 71.9886 18.3977 71.125 14.2159 69.3977C10.0568 67.6705 6.80682 65.1136 4.46591 61.7273C2.14773 58.3182 0.931818 54.1023 0.818182 49.0795H15.1023C15.2614 51.4205 15.9318 53.375 17.1136 54.9432C18.3182 56.4886 19.9205 57.6591 21.9205 58.4545C23.9432 59.2273 26.2273 59.6136 28.7727 59.6136C31.2727 59.6136 33.4432 59.25 35.2841 58.5227C37.1477 57.7955 38.5909 56.7841 39.6136 55.4886C40.6364 54.1932 41.1477 52.7045 41.1477 51.0227C41.1477 49.4545 40.6818 48.1364 39.75 47.0682C38.8409 46 37.5 45.0909 35.7273 44.3409C33.9773 43.5909 31.8295 42.9091 29.2841 42.2955L21.6818 40.3864C15.7955 38.9545 11.1477 36.7159 7.73864 33.6705C4.32955 30.625 2.63636 26.5227 2.65909 21.3636C2.63636 17.1364 3.76136 13.4432 6.03409 10.2841C8.32955 7.125 11.4773 4.65909 15.4773 2.88636C19.4773 1.11363 24.0227 0.22727 29.1136 0.22727C34.2955 0.22727 38.8182 1.11363 42.6818 2.88636C46.5682 4.65909 49.5909 7.125 51.75 10.2841C53.9091 13.4432 55.0227 17.1023 55.0909 21.2614H40.9432ZM65.9744 71V1.18182H80.7358V31.9659H81.6562L106.781 1.18182H124.474L98.5653 32.4432L124.781 71H107.122L87.9972 42.2955L80.7358 51.1591V71H65.9744ZM128.071 1.18182H144.605L160.526 31.25H161.207L177.128 1.18182H193.662L168.196 46.3182V71H153.537V46.3182L128.071 1.18182ZM223.943 71V1.18182H270.17V13.3523H238.705V29.9886H267.102V42.1591H238.705V71H223.943ZM344.259 36.0909C344.259 43.7045 342.815 50.1818 339.929 55.5227C337.065 60.8636 333.156 64.9432 328.202 67.7614C323.27 70.5568 317.724 71.9545 311.565 71.9545C305.361 71.9545 299.793 70.5455 294.861 67.7273C289.929 64.9091 286.031 60.8295 283.168 55.4886C280.304 50.1477 278.872 43.6818 278.872 36.0909C278.872 28.4773 280.304 22 283.168 16.6591C286.031 11.3182 289.929 7.25 294.861 4.45455C299.793 1.63636 305.361 0.22727 311.565 0.22727C317.724 0.22727 323.27 1.63636 328.202 4.45455C333.156 7.25 337.065 11.3182 339.929 16.6591C342.815 22 344.259 28.4773 344.259 36.0909ZM329.293 36.0909C329.293 31.1591 328.554 27 327.077 23.6136C325.622 20.2273 323.565 17.6591 320.906 15.9091C318.247 14.1591 315.134 13.2841 311.565 13.2841C307.997 13.2841 304.884 14.1591 302.224 15.9091C299.565 17.6591 297.497 20.2273 296.02 23.6136C294.565 27 293.838 31.1591 293.838 36.0909C293.838 41.0227 294.565 45.1818 296.02 48.5682C297.497 51.9545 299.565 54.5227 302.224 56.2727C304.884 58.0227 307.997 58.8977 311.565 58.8977C315.134 58.8977 318.247 58.0227 320.906 56.2727C323.565 54.5227 325.622 51.9545 327.077 48.5682C328.554 45.1818 329.293 41.0227 329.293 36.0909ZM355.193 71V1.18182H382.739C388.011 1.18182 392.511 2.125 396.239 4.01136C399.989 5.875 402.841 8.52273 404.795 11.9545C406.773 15.3636 407.761 19.375 407.761 23.9886C407.761 28.625 406.761 32.6136 404.761 35.9545C402.761 39.2727 399.864 41.8182 396.068 43.5909C392.295 45.3636 387.727 46.25 382.364 46.25H363.92V34.3864H379.977C382.795 34.3864 385.136 34 387 33.2273C388.864 32.4545 390.25 31.2955 391.159 29.75C392.091 28.2045 392.557 26.2841 392.557 23.9886C392.557 21.6705 392.091 19.7159 391.159 18.125C390.25 16.5341 388.852 15.3295 386.966 14.5114C385.102 13.6705 382.75 13.25 379.909 13.25H369.955V71H355.193ZM392.898 39.2273L410.25 71H393.955L376.977 39.2273H392.898ZM479.795 25.625H464.864C464.591 23.6932 464.034 21.9773 463.193 20.4773C462.352 18.9545 461.273 17.6591 459.955 16.5909C458.636 15.5227 457.114 14.7045 455.386 14.1364C453.682 13.5682 451.83 13.2841 449.83 13.2841C446.216 13.2841 443.068 14.1818 440.386 15.9773C437.705 17.75 435.625 20.3409 434.148 23.75C432.67 27.1364 431.932 31.25 431.932 36.0909C431.932 41.0682 432.67 45.25 434.148 48.6364C435.648 52.0227 437.739 54.5795 440.42 56.3068C443.102 58.0341 446.205 58.8977 449.727 58.8977C451.705 58.8977 453.534 58.6364 455.216 58.1136C456.92 57.5909 458.432 56.8295 459.75 55.8295C461.068 54.8068 462.159 53.5682 463.023 52.1136C463.909 50.6591 464.523 49 464.864 47.1364L479.795 47.2045C479.409 50.4091 478.443 53.5 476.898 56.4773C475.375 59.4318 473.318 62.0795 470.727 64.4205C468.159 66.7386 465.091 68.5795 461.523 69.9432C457.977 71.2841 453.966 71.9545 449.489 71.9545C443.261 71.9545 437.693 70.5455 432.784 67.7273C427.898 64.9091 424.034 60.8295 421.193 55.4886C418.375 50.1477 416.966 43.6818 416.966 36.0909C416.966 28.4773 418.398 22 421.261 16.6591C424.125 11.3182 428.011 7.25 432.92 4.45455C437.83 1.63636 443.352 0.22727 449.489 0.22727C453.534 0.22727 457.284 0.795452 460.739 1.93182C464.216 3.06818 467.295 4.72727 469.977 6.90909C472.659 9.06818 474.841 11.7159 476.523 14.8523C478.227 17.9886 479.318 21.5795 479.795 25.625ZM490.381 71V1.18182H537.426V13.3523H505.142V29.9886H535.006V42.1591H505.142V58.8295H537.562V71H490.381Z" fill="url(#paint0_linear_34_9)"/>
<defs>
<linearGradient id="paint0_linear_34_9" x1="-3" y1="36" x2="544" y2="36" gradientUnits="userSpaceOnUse">
<stop stop-color="#FF0A0E"/>
<stop offset="1" stop-color="#00FFF2"/>
</linearGradient>
</defs>
</svg>
