<svg width="182" height="24" viewBox="0 0 182 24" fill="none" xmlns="http://www.w3.org/2000/svg">
<path d="M0.640625 5.43719V1.12469H14.1719V5.43719H9.60938V22.9997H5.20312V5.43719H0.640625ZM15.8906 22.9997V1.12469H20.2969V9.84344H21.5156V14.1559H20.2969V22.9997H15.8906ZM23.2344 14.1559V9.84344H24.4531V1.12469H28.8594V22.9997H24.4531V14.1559H23.2344ZM31.4219 22.9997V1.12469H42.7969V5.49969H35.8281V9.93719H39.8594V14.3434H35.8281V18.5934H42.7969V22.9997H31.4219ZM52.1094 18.0622L56.0781 16.6559C56.0781 17.1768 56.224 17.6351 56.5156 18.0309C56.8073 18.4268 57.099 18.6872 57.3906 18.8122L57.8281 19.0309V23.0934C56.0573 23.0934 54.5469 22.3226 53.2969 20.7809C52.526 19.8018 52.1302 18.8955 52.1094 18.0622ZM52.3594 7.12469C52.3594 4.83303 53.3385 3.11428 55.2969 1.96844C56.1927 1.42678 57.0365 1.14553 57.8281 1.12469V5.24969C57.3073 5.39553 56.9219 5.77053 56.6719 6.37469C56.5885 6.56219 56.5469 6.76011 56.5469 6.96844C56.5469 7.82261 57.1823 8.55178 58.4531 9.15594C58.724 9.28094 59.1615 9.46844 59.7656 9.71844C60.7656 10.1143 61.474 10.4372 61.8906 10.6872C63.5781 11.6872 64.7031 12.708 65.2656 13.7497C65.6823 14.5622 65.8906 15.4684 65.8906 16.4684C65.8906 18.3643 65.1719 19.9893 63.7344 21.3434C62.5052 22.5101 61.1094 23.0934 59.5469 23.0934V19.0309C60.3594 18.9268 60.9323 18.4997 61.2656 17.7497C61.4115 17.4164 61.4844 17.0518 61.4844 16.6559C61.4844 15.5934 60.6927 14.7184 59.1094 14.0309C58.8177 13.9059 58.3594 13.7289 57.7344 13.4997C57.0052 13.2497 56.4948 13.0518 56.2031 12.9059C54.4115 12.0518 53.2656 10.9476 52.7656 9.59344C52.4948 8.86428 52.3594 8.04136 52.3594 7.12469ZM59.5469 5.24969V1.12469C61.2969 1.12469 62.7656 1.86428 63.9531 3.34344C64.6406 4.21844 64.9948 5.01011 65.0156 5.71844L60.9531 7.06219C60.9531 6.18719 60.526 5.59344 59.6719 5.28094C59.5885 5.26011 59.5469 5.24969 59.5469 5.24969ZM67.5156 22.9997L71.5469 4.81219H72.0156L73.8906 13.5622L71.8281 22.9997H67.5156ZM74.1719 20.3434L75.1094 16.0309H76.2344L72.9219 1.12469H77.2656L82.4219 22.9997H78.0469L77.4219 20.3434H74.1719ZM83.6406 18.0622L87.6094 16.6559C87.6094 17.1768 87.7552 17.6351 88.0469 18.0309C88.3385 18.4268 88.6302 18.6872 88.9219 18.8122L89.3594 19.0309V23.0934C87.5885 23.0934 86.0781 22.3226 84.8281 20.7809C84.0573 19.8018 83.6615 18.8955 83.6406 18.0622ZM83.8906 7.12469C83.8906 4.83303 84.8698 3.11428 86.8281 1.96844C87.724 1.42678 88.5677 1.14553 89.3594 1.12469V5.24969C88.8385 5.39553 88.4531 5.77053 88.2031 6.37469C88.1198 6.56219 88.0781 6.76011 88.0781 6.96844C88.0781 7.82261 88.7135 8.55178 89.9844 9.15594C90.2552 9.28094 90.6927 9.46844 91.2969 9.71844C92.2969 10.1143 93.0052 10.4372 93.4219 10.6872C95.1094 11.6872 96.2344 12.708 96.7969 13.7497C97.2135 14.5622 97.4219 15.4684 97.4219 16.4684C97.4219 18.3643 96.7031 19.9893 95.2656 21.3434C94.0365 22.5101 92.6406 23.0934 91.0781 23.0934V19.0309C91.8906 18.9268 92.4635 18.4997 92.7969 17.7497C92.9427 17.4164 93.0156 17.0518 93.0156 16.6559C93.0156 15.5934 92.224 14.7184 90.6406 14.0309C90.349 13.9059 89.8906 13.7289 89.2656 13.4997C88.5365 13.2497 88.026 13.0518 87.7344 12.9059C85.9427 12.0518 84.7969 10.9476 84.2969 9.59344C84.026 8.86428 83.8906 8.04136 83.8906 7.12469ZM91.0781 5.24969V1.12469C92.8281 1.12469 94.2969 1.86428 95.4844 3.34344C96.1719 4.21844 96.526 5.01011 96.5469 5.71844L92.4844 7.06219C92.4844 6.18719 92.0573 5.59344 91.2031 5.28094C91.1198 5.26011 91.0781 5.24969 91.0781 5.24969ZM98.5156 5.43719V1.12469H112.047V5.43719H107.484V22.9997H103.078V5.43719H98.5156ZM113.516 22.9997L117.547 4.81219H118.016L119.891 13.5622L117.828 22.9997H113.516ZM120.172 20.3434L121.109 16.0309H122.234L118.922 1.12469H123.266L128.422 22.9997H124.047L123.422 20.3434H120.172ZM137.703 16.9059V6.62469C137.703 5.52053 138.172 4.39553 139.109 3.24969C140.359 1.74969 141.943 0.989278 143.859 0.968445V5.37469C143.005 5.39553 142.443 5.87469 142.172 6.81219C142.13 6.95803 142.109 7.06219 142.109 7.12469V16.9059C142.109 17.7601 142.578 18.3434 143.516 18.6559C143.661 18.6976 143.766 18.7184 143.828 18.7184V23.1559C142.641 23.1559 141.453 22.7289 140.266 21.8747C138.578 20.6247 137.724 18.9684 137.703 16.9059ZM145.547 23.1559V18.7184C145.88 18.7184 146.255 18.5414 146.672 18.1872C147.068 17.833 147.276 17.4059 147.297 16.9059V7.12469C147.297 6.74969 147.12 6.35386 146.766 5.93719C146.432 5.58303 146.026 5.39553 145.547 5.37469V0.968445C147.651 0.968445 149.339 1.87469 150.609 3.68719C151.339 4.72886 151.703 5.70803 151.703 6.62469V16.9059C151.703 19.2184 150.672 20.9893 148.609 22.2184C147.526 22.8434 146.505 23.1559 145.547 23.1559ZM153.359 5.43719V1.12469H166.891V5.43719H162.328V22.9997H157.922V5.43719H153.359ZM167.828 5.43719V1.12469H181.359V5.43719H176.797V22.9997H172.391V5.43719H167.828Z" fill="url(#paint0_linear_1_5)"/>
<defs>
<linearGradient id="paint0_linear_1_5" x1="0" y1="13.9997" x2="182" y2="13.9997" gradientUnits="userSpaceOnUse">
<stop stop-color="#F40000"/>
<stop offset="1" stop-color="white"/>
</linearGradient>
</defs>
</svg>
